<?xml version="1.0" encoding="UTF-8" standalone="no"?><!DOCTYPE svg PUBLIC "-//W3C//DTD SVG 1.0//EN"
	"http://www.w3.org/TR/2001/REC-SVG-20010904/DTD/svg10.dtd">
<svg
   xmlns:svg="http://www.w3.org/2000/svg"
   xmlns="http://www.w3.org/2000/svg"
   version="1.0"
   width="265.04855"
   height="600"
   id="svg2">
  <defs
     id="defs4" />
  <g
     transform="translate(-276.81237,-78.89416)"
     id="layer1">
    <path
       d="M 361.27839,78.89416 C 355.45315,183.74853 323.41431,244.91358 291.37548,285.69028 L 291.37548,291.51552 L 352.54053,291.51552 C 372.92887,265.30193 390.4046,236.17571 390.4046,236.17571 L 390.4046,227.43785 C 370.01625,192.48639 375.8415,105.10775 393.31722,78.89416 L 361.27839,78.89416 z M 425.35606,78.89416 C 442.83179,105.10775 448.65703,192.48639 428.26868,227.43785 L 428.26868,236.17571 C 428.26868,236.17571 445.74441,265.30193 466.13276,291.51552 L 527.29781,291.51552 L 527.29781,285.69028 C 495.25897,244.91358 463.22014,183.74853 457.39489,78.89416 L 425.35606,78.89416 z M 409.33664,236.17571 C 382.80849,236.17571 361.27836,293.58931 361.27839,364.33105 C 361.27839,391.66309 382.80846,413.84559 409.33664,413.84562 C 435.8648,413.84562 457.39487,391.66306 457.39489,364.33105 C 457.39489,293.58928 435.86477,236.17574 409.33664,236.17571 z M 335.0648,300.25338 C 325.4182,300.25338 317.58907,308.08251 317.58907,317.72911 C 317.58907,327.37571 325.4182,335.20484 335.0648,335.20484 L 355.45315,335.20484 L 355.45315,300.25338 L 335.0648,300.25338 z M 463.22014,300.25338 L 463.22014,335.20484 L 483.60849,335.20484 C 493.25509,335.20484 501.08421,327.37571 501.08421,317.72911 C 501.08421,308.08251 493.25509,300.25338 483.60849,300.25338 L 463.22014,300.25338 z M 276.81237,343.9427 C 314.67645,425.4961 355.45315,553.65144 378.75412,678.89416 L 399.14247,678.89416 C 381.66674,646.85533 370.01625,547.8262 399.14247,498.31164 L 399.14247,489.57377 C 399.14247,489.57377 370.01625,402.19513 340.89004,343.9427 L 276.81237,343.9427 z M 477.78324,343.9427 C 448.65703,402.19513 419.53082,489.57377 419.53082,489.57377 L 419.53082,498.31164 C 448.65703,547.8262 437.00654,646.85533 419.53082,678.89416 L 439.91917,678.89416 C 463.22014,553.65144 503.99684,425.4961 541.86091,343.9427 L 477.78324,343.9427 z "
       style="opacity:1;fill:#000000;fill-opacity:1;stroke:none;stroke-width:3;stroke-linecap:round;stroke-linejoin:miter;stroke-miterlimit:4;stroke-dasharray:none;stroke-dashoffset:3.59999982;stroke-opacity:1"
       id="path2724" />
  </g>
</svg>
