<?xml version="1.0" encoding="UTF-8" standalone="no"?>
<!DOCTYPE svg PUBLIC "-//W3C//DTD SVG 1.0//EN"
	"http://www.w3.org/TR/2001/REC-SVG-20010904/DTD/svg10.dtd">
<svg
   xmlns:svg="http://www.w3.org/2000/svg"
   xmlns="http://www.w3.org/2000/svg"
   version="1.0"
   width="544.82758"
   height="600"
   id="svg4715">
  <defs
     id="defs4717" />
  <g
     transform="translate(-173.99999,-158.36217)"
     id="layer1">
    <g
       transform="matrix(1.7241379,0,0,1.7241379,-126,-549.15882)"
       id="g6879">
      <path
         d="M 220,410.36218 L 174,466.36218 L 174,601.36218 L 221,659.36218 L 221,727.36218 L 257,758.36218 L 332,758.36218 L 407,758.36218 L 443,727.36218 L 443,659.36218 L 490,601.36218 L 490,466.36218 L 444,410.36218 L 332,410.36218 L 220,410.36218 z "
         style="fill:#000000;fill-opacity:1;stroke:none;stroke-width:2;stroke-miterlimit:4;stroke-dasharray:none;stroke-opacity:1"
         id="path4843" />
      <path
         d="M 279,724.36218 L 265,751.36218 L 399,751.36218 L 385,724.36218 L 279,724.36218 z "
         style="fill:#ffffff;fill-opacity:1;stroke:none;stroke-width:2;stroke-miterlimit:4;stroke-dasharray:none;stroke-opacity:1"
         id="path4845" />
      <path
         d="M 270,724.34936 L 258,749.34936 L 234,729.34936 L 270,724.34936 z "
         style="fill:#ffffff;fill-opacity:1;stroke:none;stroke-width:2;stroke-miterlimit:4;stroke-dasharray:none;stroke-opacity:1"
         id="path4847" />
      <path
         d="M 224,417.36218 L 224,571.36218 L 279,634.36218 L 279,717.36218 L 332,717.36218 L 385,717.36218 L 385,634.36218 L 440,571.36218 L 440,417.36218 L 332,417.36218 L 224,417.36218 z M 276,489.36218 C 290.904,489.36218 303,501.45818 303,516.36218 L 303,561.36218 L 249,561.36218 L 249,516.36218 C 249,501.45818 261.096,489.36218 276,489.36218 z M 388,489.36218 C 402.904,489.36218 415,501.45818 415,516.36218 L 415,561.36218 L 361,561.36218 L 361,516.36218 C 361,501.45818 373.096,489.36218 388,489.36218 z M 332,590.36218 C 340.832,590.36218 348,597.53018 348,606.36218 L 348,633.36218 C 348,642.19418 340.832,649.36218 332,649.36218 C 323.168,649.36218 316,642.19418 316,633.36218 L 316,606.36218 C 316,597.53018 323.168,590.36218 332,590.36218 z "
         style="fill:#ffffff;fill-opacity:1;stroke:none;stroke-width:2;stroke-miterlimit:4;stroke-dasharray:none;stroke-opacity:1"
         id="path6787" />
      <path
         d="M 272,717.34936 L 272,643.34936 L 228,661.34936 L 228,722.34936 L 272,717.34936 z "
         style="fill:#ffffff;fill-opacity:1;stroke:none;stroke-width:2;stroke-miterlimit:4;stroke-dasharray:none;stroke-opacity:1"
         id="path6789" />
      <path
         d="M 269,634.34936 L 227,653.34936 L 181,599.34936 L 219,577.34936 L 269,634.34936 z "
         style="fill:#ffffff;fill-opacity:1;stroke:none;stroke-width:2;stroke-miterlimit:4;stroke-dasharray:none;stroke-opacity:1"
         id="path6791" />
      <path
         d="M 217,425.34936 L 181,468.34936 L 181,591.34936 L 217,569.34936 L 217,425.34936 z "
         style="fill:#ffffff;fill-opacity:1;stroke:none;stroke-width:2;stroke-miterlimit:4;stroke-dasharray:none;stroke-opacity:1"
         id="path6793" />
      <path
         d="M 394,724.34936 L 406,749.34936 L 430,729.34936 L 394,724.34936 z "
         style="fill:#ffffff;fill-opacity:1;stroke:none;stroke-width:2;stroke-miterlimit:4;stroke-dasharray:none;stroke-opacity:1"
         id="path6828" />
      <path
         d="M 392,717.34936 L 392,643.34936 L 436,661.34936 L 436,722.34936 L 392,717.34936 z "
         style="fill:#ffffff;fill-opacity:1;stroke:none;stroke-width:2;stroke-miterlimit:4;stroke-dasharray:none;stroke-opacity:1"
         id="path6832" />
      <path
         d="M 395,634.34936 L 437,653.34936 L 483,599.34936 L 445,577.34936 L 395,634.34936 z "
         style="fill:#ffffff;fill-opacity:1;stroke:none;stroke-width:2;stroke-miterlimit:4;stroke-dasharray:none;stroke-opacity:1"
         id="path6834" />
      <path
         d="M 447,425.34936 L 483,468.34936 L 483,591.34936 L 447,569.34936 L 447,425.34936 z "
         style="fill:#ffffff;fill-opacity:1;stroke:none;stroke-width:2;stroke-miterlimit:4;stroke-dasharray:none;stroke-opacity:1"
         id="path6836" />
    </g>
  </g>
</svg>
